# xmcd
#
# Track frame offsets: 
#        150
#        34674
#        63107
#        89223
#        140655
#        162147
#        181558
#        208626
#        223504
#
# Disc length: 3252 seconds
#
# Revision: 0
# Processed by: cddbd v1.4PL0 Copyright (c) Steve Scherf et al.
# Submitted via: ExactAudioCopy v0.90b4
#
DISCID=7a0cb209
DTITLE=Van Morrison - Charlton Marquee - Hay-on-Wye 1997, disc 2
DYEAR=1997
DGENRE=Celtic
TTITLE0=Summertime In England
TTITLE1=Moondance
TTITLE2=The Healing Game
TTITLE3=See Me Through > Soldier Of Fortune > Thank You Falletinme Be 
TTITLE3=Mice Elf Again > Burning Ground
TTITLE4=If You Live
TTITLE5=Satisfied
TTITLE6=Fire In The Belly
TTITLE7=Domino
TTITLE8=Sometimes We Cry
EXTD=
EXTT0=
EXTT1=
EXTT2=
EXTT3=
EXTT4=
EXTT5=
EXTT6=
EXTT7=
EXTT8=
PLAYORDER=
